<svg xmlns="http://www.w3.org/2000/svg" width="1779" height="2238"><path fill="#fff" d="M0 0h1779v2238H0z"/><text font-family="sans-serif" font-size="22" text-decoration="normal" x="806.405" y="26.388" dominant-baseline="alphabetic">Transaction Flow</text><path d="M366.262 103.264v2135.639M778.997 103.264v2135.639m481.668-2135.639v2135.639m224.231-2135.639v2135.639m215.407-2135.639v2135.639" fill="none" stroke="#000" paint-order="fill stroke markers" stroke-miterlimit="10" stroke-width="1.466" stroke-dasharray="13.532121076923076,5.863919133333333"/><path fill="#fff" stroke="#000" paint-order="fill stroke markers" d="M334.133 55.766h64.258v47.498h-64.258V55.766z" stroke-miterlimit="10" stroke-width="2.815"/><text font-family="sans-serif" font-size="11pt" text-decoration="normal" x="353.22" y="85.672" dominant-baseline="alphabetic">App</text><path fill="#fff" stroke="#000" paint-order="fill stroke markers" d="M690.915 55.766h176.163v47.498H690.915V55.766z" stroke-miterlimit="10" stroke-width="2.815"/><text font-family="sans-serif" font-size="11pt" text-decoration="normal" x="710.002" y="85.672" dominant-baseline="alphabetic">Transaction Manager</text><path fill="#fff" stroke="#000" paint-order="fill stroke markers" d="M1174.352 55.766h172.626v47.498h-172.626V55.766z" stroke-miterlimit="10" stroke-width="2.815"/><text font-family="sans-serif" font-size="11pt" text-decoration="normal" x="1193.439" y="85.672" dominant-baseline="alphabetic">Notification Manager</text><path fill="#fff" stroke="#000" paint-order="fill stroke markers" d="M1397.914 55.766h173.965v47.498h-173.965V55.766z" stroke-miterlimit="10" stroke-width="2.815"/><text font-family="sans-serif" font-size="11pt" text-decoration="normal" x="1417.001" y="85.672" dominant-baseline="alphabetic">IDCM (Vipera Cloud)</text><path fill="#fff" stroke="#000" paint-order="fill stroke markers" d="M1629.895 55.766h140.816v47.498h-140.816V55.766z" stroke-miterlimit="10" stroke-width="2.815"/><text font-family="sans-serif" font-size="11pt" text-decoration="normal" x="1648.982" y="85.672" dominant-baseline="alphabetic">IDC Mastercard</text><path fill="#fff" stroke="#000" paint-order="fill stroke markers" d="M1476.1 178.908h17.592v193.51H1476.1v-193.51M357.466 372.418h17.592v409.887h-17.592V372.418m894.404 49.256h17.59v147.771h-17.59v-147.77M770.2 782.305h17.593v715.985H770.2V782.305m705.9 258.599h17.592v121.383H1476.1v-121.383M357.466 1162.287h17.592v170.64h-17.592v-170.64m894.404 49.257h17.59v170.64h-17.59v-170.64m224.23 286.746h17.592v147.77H1476.1v-147.77m-705.9 147.77h17.593v188.233H770.2V1646.06m705.9 188.233h17.592v147.77H1476.1v-147.77m-705.9 147.77h17.593v239.248H770.2v-239.248" stroke-miterlimit="10" stroke-width="1.466"/><path fill="#fff" d="M1519.402 138.447h149.522v22.869h-149.522z"/><path fill="#fff" d="M1519.402 156.039h155.192v22.869h-155.192z"/><text font-family="sans-serif" font-size="11pt" text-decoration="normal" x="1522.041" y="154.28" dominant-baseline="alphabetic">refbe/SendNotification</text><text font-family="sans-serif" font-size="11pt" text-decoration="normal" x="1522.041" y="171.871" dominant-baseline="alphabetic">type VERIFY_3DS, ....</text><path fill="none" stroke="#000" paint-order="fill stroke markers" d="M1700.303 178.908h-203.679" stroke-miterlimit="10" stroke-width="1.466"/><path paint-order="stroke fill markers" d="M1508.352 171.578l-14.66 7.33 14.66 7.33z"/><path fill="#fff" d="M1514.509 205.296h135.907v22.869h-135.907z"/><text font-family="sans-serif" font-size="11pt" text-decoration="normal" x="1517.148" y="221.128" dominant-baseline="alphabetic">storeTransaction(...)</text><path fill="none" stroke="#000" paint-order="fill stroke markers" d="M1493.692 228.165h70.367v22.87h-67.435" stroke-miterlimit="10" stroke-width="1.466"/><path paint-order="stroke fill markers" d="M1508.352 243.704l-14.66 7.33 14.66 7.33z"/><path fill="#fff" d="M1514.509 277.422h179.637v22.869h-179.637z"/><text font-family="sans-serif" font-size="11pt" text-decoration="normal" x="1517.148" y="293.255" dominant-baseline="alphabetic">createRemoteNotification()</text><path fill="none" stroke="#000" paint-order="fill stroke markers" d="M1493.692 300.291h70.367v22.87h-67.435" stroke-miterlimit="10" stroke-width="1.466"/><path paint-order="stroke fill markers" d="M1508.352 315.83l-14.66 7.33 14.66 7.33z"/><path fill="#fff" d="M776.688 349.548h297.783v22.869H776.688z"/><text font-family="sans-serif" font-size="11pt" text-decoration="normal" x="779.326" y="365.381" dominant-baseline="alphabetic">Notification (VERIFY_3DS, transactionInfo...)</text><path fill="none" stroke="#000" paint-order="fill stroke markers" d="M1476.1 372.418H377.99" stroke-miterlimit="10" stroke-width="1.466" stroke-dasharray="7.037"/><path paint-order="stroke fill markers" d="M389.718 365.088l-14.66 7.33 14.66 7.33z"/><path fill="#fff" d="M711.018 398.805h204.891v22.869H711.018z"/><text font-family="sans-serif" font-size="11pt" text-decoration="normal" x="713.657" y="414.638" dominant-baseline="alphabetic">processNotification(from, data)</text><path fill="none" stroke="#000" paint-order="fill stroke markers" d="M375.058 421.674h873.88" stroke-miterlimit="10" stroke-width="1.466"/><path paint-order="stroke fill markers" d="M1237.21 414.345l14.66 7.33-14.66 7.33z"/><path fill="#fff" d="M950.869 448.062h129.129v22.869H950.869z"/><text font-family="sans-serif" font-size="11pt" text-decoration="normal" x="953.507" y="463.895" dominant-baseline="alphabetic">processNotification</text><path fill="none" stroke="#000" paint-order="fill stroke markers" d="M1251.87 470.931H781.928" stroke-miterlimit="10" stroke-width="1.466"/><path paint-order="stroke fill markers" d="M793.657 463.601l-14.66 7.33 14.66 7.33z"/><path fill="#fff" d="M804.212 497.319h422.443v22.869H804.212z"/><text font-family="sans-serif" font-size="11pt" text-decoration="normal" x="806.85" y="513.152" dominant-baseline="alphabetic">NotificationProcessResult.userActionRequired(idcmNotification);</text><path fill="none" stroke="#000" paint-order="fill stroke markers" d="M778.997 520.188h469.94" stroke-miterlimit="10" stroke-width="1.466"/><path paint-order="stroke fill markers" d="M1237.21 512.858l14.66 7.33-14.66 7.33z"/><path fill="#fff" d="M602.242 546.576h422.443v22.869H602.242z"/><text font-family="sans-serif" font-size="11pt" text-decoration="normal" x="604.881" y="562.408" dominant-baseline="alphabetic">NotificationProcessResult.userActionRequired(idcmNotification);</text><path fill="none" stroke="#000" paint-order="fill stroke markers" d="M1251.87 569.445H377.99" stroke-miterlimit="10" stroke-width="1.466"/><path paint-order="stroke fill markers" d="M389.718 562.115l-14.66 7.33 14.66 7.33z"/><path fill="#fff" stroke="#000" paint-order="fill stroke markers" d="M52.775 595.833h611.14l15.833 15.832v24.629H52.775v-40.461m611.14 0v15.832h15.833" stroke-miterlimit="10" stroke-width="1.466"/><text font-family="sans-serif" font-size="11pt" text-decoration="normal" x="77.404" y="620.461" dominant-baseline="alphabetic">show ui (notification or custom screen with ui to accept or reject transaction has you want</text><path fill="#fff" d="M88.99 710.179h214.669v22.869H88.99z"/><text font-family="sans-serif" font-size="11pt" text-decoration="normal" x="91.629" y="726.012" dominant-baseline="alphabetic">confirm transaction (transaction)</text><path fill="none" stroke="#000" paint-order="fill stroke markers" d="M35.184 733.049h319.35" stroke-miterlimit="10" stroke-width="1.466"/><path paint-order="stroke fill markers" d="M342.806 725.719l14.66 7.33-14.66 7.33z"/><path fill="#fff" d="M395.875 759.436h353.509v22.869H395.875z"/><text font-family="sans-serif" font-size="11pt" text-decoration="normal" x="398.513" y="775.269" dominant-baseline="alphabetic">authorizeTransaction(transaction, tenantAccountId ,..)</text><path fill="none" stroke="#000" paint-order="fill stroke markers" d="M375.058 782.305h392.21" stroke-miterlimit="10" stroke-width="1.466"/><path paint-order="stroke fill markers" d="M755.541 774.976l14.66 7.33-14.66 7.33z"/><path fill="#fff" d="M808.61 808.693h200.839v22.869H808.61z"/><text font-family="sans-serif" font-size="11pt" text-decoration="normal" x="811.248" y="824.526" dominant-baseline="alphabetic">initializeFidoAuthentication(...)</text><path fill="none" stroke="#000" paint-order="fill stroke markers" d="M787.793 831.562h70.367v22.87h-67.435" stroke-miterlimit="10" stroke-width="1.466"/><path paint-order="stroke fill markers" d="M802.452 847.102l-14.66 7.33 14.66 7.33z"/><path fill="#fff" stroke="#000" paint-order="fill stroke markers" d="M636.208 880.82h269.745l15.832 15.832v42.22H636.208V880.82m269.745 0v15.833h15.832" stroke-miterlimit="10" stroke-width="1.466"/><g font-family="sans-serif" font-size="11pt" dominant-baseline="alphabetic"><text text-decoration="normal" x="660.836" y="905.448">FidoAuthentication is a blocking call.</text><text text-decoration="normal" x="660.836" y="923.04">MC sdk call directly IDC Backend</text></g><path fill="#fff" d="M1519.663 965.26h147.074v22.869h-147.074z"/><path fill="#fff" d="M1519.663 982.851h5.278v22.869h-5.278z"/><path fill="#fff" d="M1519.663 1000.443h154.669v22.869h-154.669z"/><path fill="#fff" d="M1519.663 1018.035h135.671v22.869h-135.671z"/><text font-family="sans-serif" font-size="11pt" text-decoration="normal" x="1522.302" y="981.092" dominant-baseline="alphabetic">refbe/sendNotification</text><text font-family="sans-serif" font-size="11pt" text-decoration="normal" x="1522.302" y="1016.276" dominant-baseline="alphabetic">type: SDK_PAYLOAD,</text><text font-family="sans-serif" font-size="11pt" text-decoration="normal" x="1522.302" y="1033.868" dominant-baseline="alphabetic">tenantAccountId: ...</text><path fill="none" stroke="#000" paint-order="fill stroke markers" d="M1700.303 1040.904h-203.679" stroke-miterlimit="10" stroke-width="1.466"/><path paint-order="stroke fill markers" d="M1508.352 1033.574l-14.66 7.33 14.66 7.33z"/><path fill="#fff" d="M1514.509 1067.292h179.637v22.869h-179.637z"/><text font-family="sans-serif" font-size="11pt" text-decoration="normal" x="1517.148" y="1083.125" dominant-baseline="alphabetic">createRemoteNotification()</text><path fill="none" stroke="#000" paint-order="fill stroke markers" d="M1493.692 1090.161h70.367v22.87h-67.435" stroke-miterlimit="10" stroke-width="1.466"/><path paint-order="stroke fill markers" d="M1508.352 1105.7l-14.66 7.33 14.66 7.33z"/><path fill="#fff" d="M816.884 1139.418h217.389v22.869H816.884z"/><text font-family="sans-serif" font-size="11pt" text-decoration="normal" x="819.523" y="1155.251" dominant-baseline="alphabetic">Notification (SDK_PAYLOAD, ...)</text><path fill="none" stroke="#000" paint-order="fill stroke markers" d="M1476.1 1162.287H377.99" stroke-miterlimit="10" stroke-width="1.466" stroke-dasharray="7.037"/><path paint-order="stroke fill markers" d="M389.718 1154.958l-14.66 7.33 14.66 7.33z"/><path fill="#fff" d="M711.018 1188.675h204.891v22.869H711.018z"/><text font-family="sans-serif" font-size="11pt" text-decoration="normal" x="713.657" y="1204.508" dominant-baseline="alphabetic">processNotification(from, data)</text><path fill="none" stroke="#000" paint-order="fill stroke markers" d="M375.058 1211.544h873.88" stroke-miterlimit="10" stroke-width="1.466"/><path paint-order="stroke fill markers" d="M1237.21 1204.214l14.66 7.33-14.66 7.33z"/><path fill="#fff" d="M1290.278 1237.932h179.665v22.869h-179.665z"/><text font-family="sans-serif" font-size="11pt" text-decoration="normal" x="1292.917" y="1253.765" dominant-baseline="alphabetic">setSDKPushPayload(data)</text><path fill="none" stroke="#000" paint-order="fill stroke markers" d="M1269.46 1260.801h70.368v22.87h-67.435" stroke-miterlimit="10" stroke-width="1.466"/><path paint-order="stroke fill markers" d="M1284.12 1276.34l-14.66 7.33 14.66 7.33z"/><path fill="#fff" d="M712.65 1310.058h201.627v22.869H712.65z"/><text font-family="sans-serif" font-size="11pt" text-decoration="normal" x="715.289" y="1325.891" dominant-baseline="alphabetic">NotificationProcessResult.ok()</text><path fill="none" stroke="#000" paint-order="fill stroke markers" d="M1251.87 1332.927H377.99" stroke-miterlimit="10" stroke-width="1.466"/><path paint-order="stroke fill markers" d="M389.718 1325.598l-14.66 7.33 14.66 7.33z"/><path fill="#fff" d="M1017.192 1359.315h5.278v22.869h-5.278z"/><path fill="none" stroke="#000" paint-order="fill stroke markers" d="M1251.87 1382.184H790.724" stroke-miterlimit="10" stroke-width="1.466" stroke-dasharray="7.037"/><path paint-order="stroke fill markers" d="M802.452 1374.854l-14.66 7.33 14.66 7.33z"/><path fill="#fff" stroke="#000" paint-order="fill stroke markers" d="M634.987 1408.572h272.186l15.833 15.833v24.628H634.987v-40.461m272.186 0v15.833h15.833" stroke-miterlimit="10" stroke-width="1.466"/><text font-family="sans-serif" font-size="11pt" text-decoration="normal" x="659.616" y="1433.2" dominant-baseline="alphabetic">unblock the InitializeFidoRegistration</text><path fill="#fff" d="M1071.033 1475.421h121.827v22.869h-121.827z"/><text font-family="sans-serif" font-size="11pt" text-decoration="normal" x="1073.672" y="1491.253" dominant-baseline="alphabetic">fidoAuthentication</text><path fill="none" stroke="#000" paint-order="fill stroke markers" d="M787.793 1498.29h685.375" stroke-miterlimit="10" stroke-width="1.466"/><path paint-order="stroke fill markers" d="M1461.44 1490.96l14.66 7.33-14.66 7.33z"/><path fill="#fff" d="M1588.249 1524.678h17.497v22.869h-17.497z"/><text font-family="sans-serif" font-size="11pt" text-decoration="normal" x="1590.888" y="1540.51" dominant-baseline="alphabetic">...</text><path fill="none" stroke="#000" paint-order="fill stroke markers" d="M1493.692 1547.547h203.679" stroke-miterlimit="10" stroke-width="1.466"/><path paint-order="stroke fill markers" d="M1685.643 1540.217l14.66 7.33-14.66 7.33z"/><path fill="#fff" d="M1588.249 1573.935h17.497v22.869h-17.497z"/><text font-family="sans-serif" font-size="11pt" text-decoration="normal" x="1590.888" y="1589.767" dominant-baseline="alphabetic">...</text><path fill="none" stroke="#000" paint-order="fill stroke markers" d="M1700.303 1596.804h-203.679" stroke-miterlimit="10" stroke-width="1.466"/><path paint-order="stroke fill markers" d="M1508.352 1589.474l-14.66 7.33 14.66 7.33z"/><path fill="#fff" d="M987.518 1623.191h288.857v22.869H987.518z"/><text font-family="sans-serif" font-size="11pt" text-decoration="normal" x="990.157" y="1639.024" dominant-baseline="alphabetic">AuthenticationResponse (mcSdkResponse)</text><path fill="none" stroke="#000" paint-order="fill stroke markers" d="M1476.1 1646.06H790.725" stroke-miterlimit="10" stroke-width="1.466"/><path paint-order="stroke fill markers" d="M802.452 1638.73l-14.66 7.33 14.66 7.33z"/><path fill="#fff" d="M808.61 1672.448h314.912v22.869H808.61z"/><text font-family="sans-serif" font-size="11pt" text-decoration="normal" x="811.248" y="1688.281" dominant-baseline="alphabetic">processFidoAuthentication(mcSdkResponse,...)</text><path fill="none" stroke="#000" paint-order="fill stroke markers" d="M787.793 1695.318h70.367v22.869h-67.435" stroke-miterlimit="10" stroke-width="1.466"/><path paint-order="stroke fill markers" d="M802.452 1710.857l-14.66 7.33 14.66 7.33z"/><path fill="#fff" stroke="#000" paint-order="fill stroke markers" d="M546.598 1744.575h448.965l15.832 15.832v24.629H546.598v-40.461m448.965 0v15.832h15.832" stroke-miterlimit="10" stroke-width="1.466"/><text font-family="sans-serif" font-size="11pt" text-decoration="normal" x="571.227" y="1769.203" dominant-baseline="alphabetic">MC SDK show ui to acquire user authentication (Biometric / Pin)</text><path fill="#fff" d="M1096.316 1811.423h71.262v22.869h-71.262z"/><text font-family="sans-serif" font-size="11pt" text-decoration="normal" x="1098.954" y="1827.256" dominant-baseline="alphabetic">fidoAck(..)</text><path fill="none" stroke="#000" paint-order="fill stroke markers" d="M787.793 1834.293h685.375" stroke-miterlimit="10" stroke-width="1.466"/><path paint-order="stroke fill markers" d="M1461.44 1826.963l14.66 7.33-14.66 7.33z"/><path fill="#fff" d="M1588.249 1860.68h17.497v22.869h-17.497z"/><text font-family="sans-serif" font-size="11pt" text-decoration="normal" x="1590.888" y="1876.513" dominant-baseline="alphabetic">...</text><path fill="none" stroke="#000" paint-order="fill stroke markers" d="M1493.692 1883.55h203.679" stroke-miterlimit="10" stroke-width="1.466"/><path paint-order="stroke fill markers" d="M1685.643 1876.22l14.66 7.33-14.66 7.33z"/><path fill="#fff" d="M1588.249 1909.937h17.497v22.869h-17.497z"/><text font-family="sans-serif" font-size="11pt" text-decoration="normal" x="1590.888" y="1925.77" dominant-baseline="alphabetic">...</text><path fill="none" stroke="#000" paint-order="fill stroke markers" d="M1700.303 1932.806h-203.679" stroke-miterlimit="10" stroke-width="1.466"/><path paint-order="stroke fill markers" d="M1508.352 1925.476l-14.66 7.33 14.66 7.33z"/><path fill="#fff" d="M1007.497 1959.194h248.899v22.869h-248.899z"/><text font-family="sans-serif" font-size="11pt" text-decoration="normal" x="1010.136" y="1975.027" dominant-baseline="alphabetic">FidoAckResponse (mcSdkResponse)</text><path fill="none" stroke="#000" paint-order="fill stroke markers" d="M1476.1 1982.063H790.725" stroke-miterlimit="10" stroke-width="1.466"/><path paint-order="stroke fill markers" d="M802.452 1974.733l-14.66 7.33 14.66 7.33z"/><path fill="#fff" d="M808.61 2008.451h208.177v22.869H808.61z"/><text font-family="sans-serif" font-size="11pt" text-decoration="normal" x="811.248" y="2024.284" dominant-baseline="alphabetic">completeFidoAuthentication(...)</text><path fill="none" stroke="#000" paint-order="fill stroke markers" d="M787.793 2031.32h70.367v22.87h-67.435" stroke-miterlimit="10" stroke-width="1.466"/><path paint-order="stroke fill markers" d="M802.452 2046.86l-14.66 7.33 14.66 7.33z"/><path fill="#fff" d="M492.25 2080.577h151.963v22.869H492.25z"/><text font-family="sans-serif" font-size="11pt" text-decoration="normal" x="494.888" y="2096.41" dominant-baseline="alphabetic">onAuthorizationDone()</text><path fill="none" stroke="#000" paint-order="fill stroke markers" d="M770.2 2103.446H369.195" stroke-miterlimit="10" stroke-width="1.466"/><path paint-order="stroke fill markers" d="M380.922 2096.117l-14.66 7.33 14.66 7.33z"/><path fill="none" stroke="#000" paint-order="fill stroke markers" d="M17.592 662.682h1744.282v1514.65H17.592V662.682z" stroke-miterlimit="10" stroke-width="2.513"/><path fill="#fff" stroke="#000" paint-order="fill stroke markers" d="M17.592 662.682v21.11h48.872l10.555-10.555v-10.555H17.592" stroke-miterlimit="10" stroke-width="2.513"/><text font-family="sans-serif" font-size="8.8pt" font-weight="bold" text-decoration="normal" x="35.184" y="676.755" dominant-baseline="alphabetic">alt</text><text font-family="sans-serif" font-size="8.8pt" font-weight="bold" text-decoration="normal" x="94.611" y="676.755" dominant-baseline="alphabetic">[User Confirm the transaction]</text><path fill="none" stroke="#000" paint-order="fill stroke markers" d="M17.592 2129.834h1744.282" stroke-miterlimit="10" stroke-width="2.513" stroke-dasharray="4.398"/><text font-family="sans-serif" font-size="8.8pt" font-weight="bold" text-decoration="normal" x="94.611" y="2143.907" dominant-baseline="alphabetic">[User reject the transaction]</text></svg>