<svg xmlns="http://www.w3.org/2000/svg" viewBox="0 0 367.6 122" width="367.6" height="122"><path d="M228.7 21.5a10.8 10.8 0 110-21.6 10.8 10.8 0 010 21.6zm0-16.9a6.2 6.2 0 00-6.2 6.2c0 3.4 2.8 6.2 6.2 6.2 3.4 0 6.2-2.8 6.2-6.2 0-3.5-2.8-6.2-6.2-6.2z" fill="#00a9e0"/><path fill="#0046ad" d="M11 21.4C11 10.9 17.8 2 31.9 2c3 0 6.4.4 10.2 1.3v13.3c-2.5-1.1-5-1.8-7.1-1.8-4.8 0-7.2 2.7-7.2 7.4v3H41v11.6H27.9V87H11V36.9H0V25.2h11v-3.8zm115 37.1c0 10.1 4.4 15.3 12.7 15.3 7.4 0 12.8-5 12.8-17.7s-5.4-17.7-12.8-17.7c-2.7 0-5 .6-6.8 1.8V26.8c3-1.3 6.6-2.4 10.2-2.4 15.2 0 26.8 8.4 26.8 31.4 0 21.3-11.2 32-27.7 32-6.7 0-12.1-2.9-15.1-6.8v6h-16.9V4.2H126v54.3zm68.4 28.6h-16.9V25.2h16.6v11c4-8.6 11.2-12.4 17.4-12.4l2.9.3v18.5c-1.9-.6-3.9-1-5.7-1-7.7 0-14.2 5.2-14.2 15.1v30.4zm25.9 0V25.2h16.9V87h-16.9zm81.9-23.4c-1.9 16-12.4 24.2-27.9 24.2-17.5 0-29.1-10.5-29.1-31.5 0-20.9 12.2-32 29.7-32 15.1 0 25.6 8.2 27.1 24.6h-17c-1-7.7-4.7-10.6-10.4-10.6-7.3 0-12.1 5.1-12.1 17.8 0 12.5 4.9 17.7 11.9 17.7 5.4 0 9.6-2.8 10.9-10.2h16.9zm24.5 23.4h-16.9V4.2h16.9v82.9zm18.4-34.3l22.4 34.3H348L326.8 55l20-29.7h17.8l-19.5 27.5zm-334.4 61h3.7v.4c0 .8.3 1.3.8 1.6a4 4 0 002 .5 3 3 0 001.9-.5c.4-.3.5-.7.5-1.2s-.2-.9-.7-1.1l-1.9-.7-1.7-.5-1.7-.6c-.5-.2-1-.5-1.4-.9-.4-.3-.7-.7-.9-1.2-.2-.5-.4-1.1-.4-1.7 0-.6.1-1.3.3-1.8.2-.6.6-1.1 1.1-1.6a5 5 0 011.9-1.1c.8-.3 1.7-.4 2.8-.4 2 0 3.4.4 4.4 1.2a4 4 0 011.5 3.3v.5h-3.4v-.4c0-.6-.2-1.1-.7-1.5-.5-.3-1.1-.5-1.9-.5s-1.4.2-1.8.5-.6.7-.6 1.2l.1.5c0 .2.1.3.3.5l.6.4 1 .4 2.5.7 1.7.7a4.2 4.2 0 012.3 2.2 4.7 4.7 0 01-.1 3.5c-.3.6-.7 1.1-1.2 1.5-.5.4-1.2.8-1.9 1a11 11 0 01-5.8 0c-.8-.3-1.5-.7-2-1.1-.5-.5-.9-1-1.1-1.6l-.3-1.8v-.4zm25.6 5.1v-6.4h-6.2v6.4h-3.5v-15.7h3.5v6.2h6.2v-6.2h3.5v15.7h-3.5zm16-3.2h-5.5l-1 3.2h-3.5l5.2-15.7h4.3l5.2 15.7h-3.7l-1-3.2zm-.8-2.8l-1.9-6.2-1.9 6.2h3.8zm11.4 6h-3.5v-15.7h6.7c.8 0 1.5.1 2.2.3s1.3.6 1.8 1 .9 1 1.2 1.6c.3.7.4 1.4.4 2.3 0 .9-.1 1.6-.4 2.3a4.8 4.8 0 01-3 2.6c-.7.2-1.4.3-2.2.3h-3.2v5.3zm2.7-8.1c.7 0 1.3-.2 1.7-.6s.6-1 .6-1.7-.2-1.3-.6-1.7c-.4-.4-1-.6-1.7-.6h-2.7v4.6h2.7zm8.7 8.1v-15.7h3.5v15.7h-3.5zm18.6 0l-7.6-11.5v11.5h-3.4v-15.7h4.7l5.6 8.4v-8.4h3.4v15.7h-2.7zm13.1.3c-1 0-2-.2-2.9-.5-.9-.4-1.7-.9-2.3-1.6a5.8 5.8 0 01-1.5-2.5 9 9 0 01-.6-3.4 9 9 0 01.6-3.4c.4-1 1-1.9 1.7-2.6a8.3 8.3 0 015.7-2.2 8.4 8.4 0 015.1 1.6 5 5 0 011.5 2c.4.8.6 1.7.6 2.6h-3.7c0-.5-.1-1-.3-1.3-.2-.4-.4-.7-.8-1-.3-.3-.7-.5-1.1-.6l-1.3-.2c-1.4 0-2.4.4-3.2 1.3-.8.8-1.2 2.1-1.2 3.7 0 1.5.4 2.7 1.1 3.6.7.9 1.8 1.3 3.2 1.3l1.3-.2 1.1-.5.9-.8c.2-.3.4-.7.4-1.1h-3.8v-2.6h7.2v8.1h-3.1V117a4 4 0 01-1.8 1.6c-.7.4-1.7.6-2.8.6zm20.8-12.9v3.7h7.1v3.1h-7.1v5.8h-3.5v-15.7h11.2v3.1h-7.7zm10.7 12.6v-15.7h3.5v15.7h-3.5zm18.6 0l-7.6-11.5v11.5H145v-15.7h4.7l5.6 8.4v-8.4h3.4v15.7h-2.6zm15-3.2h-5.5l-1 3.2h-3.5l5.2-15.7h4.3l5.2 15.7h-3.7l-1-3.2zm-.8-2.8l-1.9-6.2-1.9 6.2h3.8zm19 6l-7.6-11.5v11.5h-3.4v-15.7h4.7l5.6 8.4v-8.4h3.4v15.7h-2.7zm16.9-10.1c-.1-.9-.5-1.5-1.1-2-.6-.4-1.4-.7-2.3-.7-1.2 0-2.2.4-2.9 1.3-.7.8-1.1 2.1-1.1 3.7 0 1.5.4 2.7 1.1 3.6.7.9 1.7 1.3 2.9 1.3a4 4 0 002.4-.7c.6-.5 1-1.1 1.1-2h3.6a5.5 5.5 0 01-2.3 4.3c-.7.5-1.4.9-2.2 1.1-.8.3-1.7.4-2.6.4-1.1 0-2.1-.2-3.1-.5a7.2 7.2 0 01-4-4.1 9 9 0 01-.6-3.4 9 9 0 012.2-6c.7-.7 1.5-1.2 2.4-1.6.9-.4 2-.5 3-.5.9 0 1.8.1 2.6.4.8.2 1.6.6 2.2 1.1.6.5 1.2 1.1 1.6 1.8.4.7.7 1.6.7 2.5h-3.6zm6.7 10.1v-15.7h11.7v3.1h-8.2v3.1h4.6v3.1h-4.6v3.3h8.7v3.1h-12.2zm19.3-1.8l-.2 1.2-.6 1.2-.8 1.3-1 1.3h-2l1.7-3.2-.6-.3-.4-.5-.2-.5-.1-.4a2 2 0 012.1-2.1 2 2 0 011.5.6c.4.3.6.8.6 1.4zm16.3-10.8v12.6H245v-12.6h-4.9v-3.1h13.4v3.1h-5zm14.2-3.3c1.1 0 2.1.2 3 .5.9.4 1.8.9 2.4 1.6a9 9 0 012.2 6 9 9 0 01-.6 3.4 7.2 7.2 0 01-4 4.1 9.4 9.4 0 01-6 0 7.2 7.2 0 01-4-4.1 9 9 0 01-.6-3.4 9 9 0 012.2-6c.7-.7 1.5-1.2 2.4-1.6.9-.3 1.9-.5 3-.5zm0 13c1.2 0 2.2-.4 3-1.3.7-.9 1.1-2.1 1.1-3.6 0-1.6-.4-2.9-1.1-3.7a3.8 3.8 0 00-3-1.3c-1.2 0-2.2.4-2.9 1.3-.7.8-1.1 2.1-1.1 3.7 0 1.5.4 2.7 1.1 3.6.7.9 1.7 1.3 2.9 1.3zm17.4 3.2c-1 0-2-.2-2.9-.5-.9-.4-1.7-.9-2.3-1.6a5.8 5.8 0 01-1.5-2.5 9 9 0 01-.6-3.4 9 9 0 01.6-3.4c.4-1 1-1.9 1.7-2.6a8.3 8.3 0 015.7-2.2 8.4 8.4 0 015.1 1.6 5 5 0 011.5 2c.4.8.6 1.7.6 2.6h-3.7c0-.5-.1-1-.3-1.3-.2-.4-.4-.7-.8-1-.3-.3-.7-.5-1.1-.6l-1.3-.2c-1.4 0-2.4.4-3.2 1.3-.8.8-1.2 2.1-1.2 3.7 0 1.5.4 2.7 1.1 3.6.7.9 1.8 1.3 3.2 1.3l1.3-.2 1.1-.5.9-.8c.2-.3.4-.7.4-1.1h-3.8v-2.6h7.2v8.1h-3.1V117a4 4 0 01-1.8 1.6c-.7.4-1.7.6-2.8.6zm11.4-.3v-15.7h11.7v3.1H295v3.1h4.6v3.1H295v3.3h8.7v3.1h-12.2zm22.5-12.6v12.6h-3.5v-12.6h-4.9v-3.1H319v3.1h-5zm17.2 12.6v-6.4H325v6.4h-3.5v-15.7h3.5v6.2h6.2v-6.2h3.5v15.7h-3.5zm7.5 0v-15.7h11.7v3.1h-8.2v3.1h4.6v3.1h-4.6v3.3h8.7v3.1h-12.2zm18.8 0H354v-15.7h7.2c.8 0 1.5.1 2.2.3.7.2 1.3.5 1.7 1a4.6 4.6 0 011.6 3.7 5 5 0 01-.8 2.7c-.5.8-1.3 1.4-2.4 1.8l4.2 6.3h-4.1l-3.8-5.8h-2.3v5.7zm5.4-10.6c0-.7-.2-1.2-.7-1.6-.4-.3-1.1-.5-1.9-.5h-2.9v4.2h2.9c.8 0 1.4-.2 1.9-.6.5-.3.7-.9.7-1.5zM73.2 24.5c-16.9 0-26.8 8.6-26.8 22.3h16c0-3.6 1.9-8.7 10.2-8.7 6.3 0 9.4 3.1 9.4 8.2v18.2c0 6.2-4.2 11-11.2 11-5.8 0-8.3-3.8-8.3-6.6 0-2.6 1.5-4.7 4.6-6.1l8.6-3.4V47.6l-13.5 4.2c-9 2.7-17.2 7.3-17.2 18.5 0 10.3 8.1 17.5 19.7 17.5 10 0 15.3-4.9 17.3-7.5V87h17V44.9c.1-13.8-9.6-20.4-25.8-20.4z"/></svg>