<svg xmlns="http://www.w3.org/2000/svg" viewBox="0 0 367.5 87.8" width="367.5" height="87.8"><path d="M228.7 21.5a10.8 10.8 0 110-21.6 10.8 10.8 0 010 21.6zm0-16.9a6.2 6.2 0 00-6.2 6.2c0 3.4 2.8 6.2 6.2 6.2 3.4 0 6.2-2.8 6.2-6.2 0-3.5-2.8-6.2-6.2-6.2z" fill="#00a9e0"/><path fill="#fff" d="M11 21.4C11 10.9 17.8 2 31.9 2c3 0 6.4.4 10.2 1.3v13.3c-2.5-1.1-5-1.8-7.1-1.8-4.8 0-7.2 2.7-7.2 7.4v3H41v11.6H27.9V87H11V36.9H0V25.2h11v-3.8zm115 37.1c0 10.1 4.4 15.3 12.7 15.3 7.4 0 12.8-5 12.8-17.7s-5.4-17.7-12.8-17.7c-2.7 0-5 .6-6.8 1.8V26.8c3-1.3 6.6-2.4 10.2-2.4 15.2 0 26.8 8.4 26.8 31.4 0 21.3-11.2 32-27.7 32-6.7 0-12.1-2.9-15.1-6.8v6h-16.9V4.2H126v54.3zm68.4 28.6h-16.9V25.2h16.6v11c4-8.6 11.2-12.4 17.4-12.4l2.9.3v18.5c-1.9-.6-3.9-1-5.7-1-7.7 0-14.2 5.2-14.2 15.1v30.4zm25.9 0V25.2h16.9V87h-16.9zm81.9-23.4c-1.9 16-12.4 24.2-27.9 24.2-17.5 0-29.1-10.5-29.1-31.5 0-20.9 12.2-32 29.7-32 15.1 0 25.6 8.2 27.1 24.6h-17c-1-7.7-4.7-10.6-10.4-10.6-7.3 0-12.1 5.1-12.1 17.8 0 12.5 4.9 17.7 11.9 17.7 5.4 0 9.6-2.8 10.9-10.2h16.9zm24.5 23.4h-16.9V4.2h16.9v82.9zm18.4-34.3l22.4 34.3H348L326.8 55l20-29.7h17.8l-19.5 27.5zM73.2 24.5c-16.9 0-26.8 8.6-26.8 22.3h16c0-3.6 1.9-8.7 10.2-8.7 6.3 0 9.4 3.1 9.4 8.2v18.2c0 6.2-4.2 11-11.2 11-5.8 0-8.3-3.8-8.3-6.6 0-2.6 1.5-4.7 4.6-6.1l8.6-3.4V47.6l-13.5 4.2c-9 2.7-17.2 7.3-17.2 18.5 0 10.3 8.1 17.5 19.7 17.5 10 0 15.3-4.9 17.3-7.5V87h17V44.9c.1-13.8-9.6-20.4-25.8-20.4z"/></svg>